<svg xmlns="http://www.w3.org/2000/svg" viewBox="-6 4 128 116" width="256" height="232" xmlns:c2pa="http://c2pa.org/manifest"><metadata><c2pa:manifest>AAAWgmp1bWIAAAAeanVtZGMycGEAEQAQgAAAqgA4m3EDYzJwYQAAABZcanVtYgAAAEdqdW1kYzJtYQARABCAAACqADibcQN1cm46YzJwYTozYmUwZWYxYy0xMjI0LTQzYzgtOTVkYi0wNDViNDY5YjdmYmQAAAADl2p1bWIAAAApanVtZGMyYXMAEQAQgAAAqgA4m3EDYzJwYS5hc3NlcnRpb25zAAAAALxqdW1iAAAARGp1bWRjYm9yABEAEIAAAKoAOJtxE2MycGEuaW5ncmVkaWVudC52MwAAAAAYYzJzaFV3135daB7p3O4I1EaUJMYAAABwY2JvcqNpZGM6Zm9ybWF0bWltYWdlL3N2Zyt4bWxqaW5zdGFuY2VJRHgseG1wOmlpZDpiOGY5ZTE3OC02MzAyLTQ0NjktYmQ4NC1kZGFhZjE3OTVhY2NscmVsYXRpb25zaGlwaHBhcmVudE9mAAAB4mp1bWIAAABBanVtZGNib3IAEQAQgAAAqgA4m3ETYzJwYS5hY3Rpb25zLnYyAAAAABhjMnNogYBYZSTLOXVeoijFS6M1GQAAAZljYm9yomdhY3Rpb25zgqJmYWN0aW9ua2MycGEub3BlbmVkanBhcmFtZXRlcnOha2luZ3JlZGllbnRzgaJjdXJseC1zZWxmI2p1bWJmPWMycGEuYXNzZXJ0aW9ucy9jMnBhLmluZ3JlZGllbnQudjNkaGFzaFggynNHQVFXkZ97IdZ1/irRzoeoRzi+QeF0VboyNCKZdoqkZmFjdGlvbngdY29tLmFudGhyb3BpYy5jbGF1ZGUucHJvdmlkZWRqcGFyYW1ldGVyc6F4H2NvbS5hbnRocm9waWMub3JpZ2luLWNvbmZpZGVuY2VndW5rbm93bmtkZXNjcmlwdGlvbnhmQ2xhdWRlIHByb3ZpZGVkIHRoaXMgZmlsZSBhdCB0aGUgcmVxdWVzdCBvZiBhIHVzZXIgYW5kIG1heSBoYXZlIGNyZWF0ZWQgb3IgbW9kaWZpZWQgdGhlIGZpbGUgY29udGVudHMubXNvZnR3YXJlQWdlbnShZG5hbWVmQ2xhdWRlcmFsbEFjdGlvbnNJbmNsdWRlZPUAAADIanVtYgAAAEBqdW1kY2JvcgARABCAAACqADibcRNjMnBhLmhhc2guZGF0YQAAAAAYYzJzaDdF9WjgzTEBuGko7szFvGYAAACAY2JvcqVjYWxnZnNoYTI1NmNwYWRNAAAAAAAAAAAAAAAAAGRoYXNoWCBq95dpLLz2C8tJ8yZ0DA1xiDeyIlXZ+uj+T4YNDMWe4GRuYW1lbmp1bWJmIG1hbmlmZXN0amV4Y2x1c2lvbnOBomVzdGFydBiXZmxlbmd0aBkeBAAAAj5qdW1iAAAAJ2p1bWRjMmNsABEAEIAAAKoAOJtxA2MycGEuY2xhaW0udjIAAAACD2Nib3KlY2FsZ2ZzaGEyNTZpc2lnbmF0dXJleE1zZWxmI2p1bWJmPS9jMnBhL3VybjpjMnBhOjNiZTBlZjFjLTEyMjQtNDNjOC05NWRiLTA0NWI0NjliN2ZiZC9jMnBhLnNpZ25hdHVyZWppbnN0YW5jZUlEeCx4bXA6aWlkOjNhYWExMGQzLWYyMWItNGRmMC1hYzIwLWQwNzMzMmI4NjFmNnJjcmVhdGVkX2Fzc2VydGlvbnODomN1cmx4LXNlbGYjanVtYmY9YzJwYS5hc3NlcnRpb25zL2MycGEuaW5ncmVkaWVudC52M2RoYXNoWCDKc0dBUVeRn3sh1nX+KtHOh6hHOL5B4XRVujI0Ipl2iqJjdXJseCpzZWxmI2p1bWJmPWMycGEuYXNzZXJ0aW9ucy9jMnBhLmFjdGlvbnMudjJkaGFzaFggJsEutFeM6N86/31yM5WnMTflV/ME4DFMz/rAZaHAMg+iY3VybHgpc2VsZiNqdW1iZj1jMnBhLmFzc2VydGlvbnMvYzJwYS5oYXNoLmRhdGFkaGFzaFggonqug++ngHN2Aycr+HZyJ87GTtZESAP3wyetjFYStTJ0Y2xhaW1fZ2VuZXJhdG9yX2luZm+jZG5hbWVvQW50aHJvcGljIEZpbGVzZ3ZlcnNpb25lMS4wLjBrc3BlY1ZlcnNpb25lMi40LjAAABA4anVtYgAAAChqdW1kYzJjcwARABCAAACqADibcQNjMnBhLnNpZ25hdHVyZQAAABAIY2JvctKEWQISogEmGCFZAgowggIGMIIBjaADAgECAhRA5aAK7sI50L64g/oGQgU9Z1UTADAKBggqhkjOPQQDAzBJMRcwFQYDVQQKEw5BbnRocm9waWMsIFBCQzEuMCwGA1UEAxMlQW50aHJvcGljIENvbnRlbnQgQ3JlZGVudGlhbHMgUm9vdCBDQTAeFw0yNjA4MDcxODQzNTZaFw0yODA4MDYxOTQzNTZaMEQxFzAVBgNVBAoTDkFudGhyb3BpYywgUEJDMSkwJwYDVQQDEyBBbnRocm9waWMgQ2xhdWRlIENvbnRlbnQgU2lnbmluZzBZMBMGByqGSM49AgEGCCqGSM49AwEHA0IABJh6CmvLUBgFFNU0vUKlOVtE6djd17L5SuwX0LemFisBM3dkd/3cyjxFA3Qo5S46fX0/ihY0VZ7mfb9KF703t5OjWDBWMA4GA1UdDwEB/wQEAwIHgDAVBgNVHSUEDjAMBgorBgEEAYPoXgIBMAwGA1UdEwEB/wQCMAAwHwYDVR0jBBgwFoAUzlHiBIFOZFsj+OPEz5o+nMHXXMIwCgYIKoZIzj0EAwMDZwAwZAIwMXMdFJ4BetLLVY7ORuE9noqbbAZOZn/aArXyTwFAZfKrPzxF2vPoJNf1+UCdg1XGAjBwX1zd9WGqYkqmL5SFqw1QySjr1zJfpJM9+1rdDwSPLMOPOjKuiXjoU/pUUeG9RwmhY3BhZFkNngAAAAAAAAAAAAAAAAAAAAAAAAAAAAAAAAAAAAAAAAAAAAAAAAAAAAAAAAAAAAAAAAAAAAAAAAAAAAAAAAAAAAAAAAAAAAAAAAAAAAAAAAAAAAAAAAAAAAAAAAAAAAAAAAAAAAAAAAAAAAAAAAAAAAAAAAAAAAAAAAAAAAAAAAAAAAAAAAAAAAAAAAAAAAAAAAAAAAAAAAAAAAAAAAAAAAAAAAAAAAAAAAAAAAAAAAAAAAAAAAAAAAAAAAAAAAAAAAAAAAAAAAAAAAAAAAAAAAAAAAAAAAAAAAAAAAAAAAAAAAAAAAAAAAAAAAAAAAAAAAAAAAAAAAAAAAAAAAAAAAAAAAAAAAAAAAAAAAAAAAAAAAAAAAAAAAAAAAAAAAAAAAAAAAAAAAAAAAAAAAAAAAAAAAAAAAAAAAAAAAAAAAAAAAAAAAAAAAAAAAAAAAAAAAAAAAAAAAAAAAAAAAAAAAAAAAAAAAAAAAAAAAAAAAAAAAAAAAAAAAAAAAAAAAAAAAAAAAAAAAAAAAAAAAAAAAAAAAAAAAAAAAAAAAAAAAAAAAAAAAAAAAAAAAAAAAAAAAAAAAAAAAAAAAAAAAAAAAAAAAAAAAAAAAAAAAAAAAAAAAAAAAAAAAAAAAAAAAAAAAAAAAAAAAAAAAAAAAAAAAAAAAAAAAAAAAAAAAAAAAAAAAAAAAAAAAAAAAAAAAAAAAAAAAAAAAAAAAAAAAAAAAAAAAAAAAAAAAAAAAAAAAAAAAAAAAAAAAAAAAAAAAAAAAAAAAAAAAAAAAAAAAAAAAAAAAAAAAAAAAAAAAAAAAAAAAAAAAAAAAAAAAAAAAAAAAAAAAAAAAAAAAAAAAAAAAAAAAAAAAAAAAAAAAAAAAAAAAAAAAAAAAAAAAAAAAAAAAAAAAAAAAAAAAAAAAAAAAAAAAAAAAAAAAAAAAAAAAAAAAAAAAAAAAAAAAAAAAAAAAAAAAAAAAAAAAAAAAAAAAAAAAAAAAAAAAAAAAAAAAAAAAAAAAAAAAAAAAAAAAAAAAAAAAAAAAAAAAAAAAAAAAAAAAAAAAAAAAAAAAAAAAAAAAAAAAAAAAAAAAAAAAAAAAAAAAAAAAAAAAAAAAAAAAAAAAAAAAAAAAAAAAAAAAAAAAAAAAAAAAAAAAAAAAAAAAAAAAAAAAAAAAAAAAAAAAAAAAAAAAAAAAAAAAAAAAAAAAAAAAAAAAAAAAAAAAAAAAAAAAAAAAAAAAAAAAAAAAAAAAAAAAAAAAAAAAAAAAAAAAAAAAAAAAAAAAAAAAAAAAAAAAAAAAAAAAAAAAAAAAAAAAAAAAAAAAAAAAAAAAAAAAAAAAAAAAAAAAAAAAAAAAAAAAAAAAAAAAAAAAAAAAAAAAAAAAAAAAAAAAAAAAAAAAAAAAAAAAAAAAAAAAAAAAAAAAAAAAAAAAAAAAAAAAAAAAAAAAAAAAAAAAAAAAAAAAAAAAAAAAAAAAAAAAAAAAAAAAAAAAAAAAAAAAAAAAAAAAAAAAAAAAAAAAAAAAAAAAAAAAAAAAAAAAAAAAAAAAAAAAAAAAAAAAAAAAAAAAAAAAAAAAAAAAAAAAAAAAAAAAAAAAAAAAAAAAAAAAAAAAAAAAAAAAAAAAAAAAAAAAAAAAAAAAAAAAAAAAAAAAAAAAAAAAAAAAAAAAAAAAAAAAAAAAAAAAAAAAAAAAAAAAAAAAAAAAAAAAAAAAAAAAAAAAAAAAAAAAAAAAAAAAAAAAAAAAAAAAAAAAAAAAAAAAAAAAAAAAAAAAAAAAAAAAAAAAAAAAAAAAAAAAAAAAAAAAAAAAAAAAAAAAAAAAAAAAAAAAAAAAAAAAAAAAAAAAAAAAAAAAAAAAAAAAAAAAAAAAAAAAAAAAAAAAAAAAAAAAAAAAAAAAAAAAAAAAAAAAAAAAAAAAAAAAAAAAAAAAAAAAAAAAAAAAAAAAAAAAAAAAAAAAAAAAAAAAAAAAAAAAAAAAAAAAAAAAAAAAAAAAAAAAAAAAAAAAAAAAAAAAAAAAAAAAAAAAAAAAAAAAAAAAAAAAAAAAAAAAAAAAAAAAAAAAAAAAAAAAAAAAAAAAAAAAAAAAAAAAAAAAAAAAAAAAAAAAAAAAAAAAAAAAAAAAAAAAAAAAAAAAAAAAAAAAAAAAAAAAAAAAAAAAAAAAAAAAAAAAAAAAAAAAAAAAAAAAAAAAAAAAAAAAAAAAAAAAAAAAAAAAAAAAAAAAAAAAAAAAAAAAAAAAAAAAAAAAAAAAAAAAAAAAAAAAAAAAAAAAAAAAAAAAAAAAAAAAAAAAAAAAAAAAAAAAAAAAAAAAAAAAAAAAAAAAAAAAAAAAAAAAAAAAAAAAAAAAAAAAAAAAAAAAAAAAAAAAAAAAAAAAAAAAAAAAAAAAAAAAAAAAAAAAAAAAAAAAAAAAAAAAAAAAAAAAAAAAAAAAAAAAAAAAAAAAAAAAAAAAAAAAAAAAAAAAAAAAAAAAAAAAAAAAAAAAAAAAAAAAAAAAAAAAAAAAAAAAAAAAAAAAAAAAAAAAAAAAAAAAAAAAAAAAAAAAAAAAAAAAAAAAAAAAAAAAAAAAAAAAAAAAAAAAAAAAAAAAAAAAAAAAAAAAAAAAAAAAAAAAAAAAAAAAAAAAAAAAAAAAAAAAAAAAAAAAAAAAAAAAAAAAAAAAAAAAAAAAAAAAAAAAAAAAAAAAAAAAAAAAAAAAAAAAAAAAAAAAAAAAAAAAAAAAAAAAAAAAAAAAAAAAAAAAAAAAAAAAAAAAAAAAAAAAAAAAAAAAAAAAAAAAAAAAAAAAAAAAAAAAAAAAAAAAAAAAAAAAAAAAAAAAAAAAAAAAAAAAAAAAAAAAAAAAAAAAAAAAAAAAAAAAAAAAAAAAAAAAAAAAAAAAAAAAAAAAAAAAAAAAAAAAAAAAAAAAAAAAAAAAAAAAAAAAAAAAAAAAAAAAAAAAAAAAAAAAAAAAAAAAAAAAAAAAAAAAAAAAAAAAAAAAAAAAAAAAAAAAAAAAAAAAAAAAAAAAAAAAAAAAAAAAAAAAAAAAAAAAAAAAAAAAAAAAAAAAAAAAAAAAAAAAAAAAAAAAAAAAAAAAAAAAAAAAAAAAAAAAAAAAAAAAAAAAAAAAAAAAAAAAAAAAAAAAAAAAAAAAAAAAAAAAAAAAAAAAAAAAAAAAAAAAAAAAAAAAAAAAAAAAAAAAAAAAAAAAAAAAAAAAAAAAAAAAAAAAAAAAAAAAAAAAAAAAAAAAAAAAAAAAAAAAAAAAAAAAAAAAAAAAAAAAAAAAAAAAAAAAAAAAAAAAAAAAAAAAAAAAAAAAAAAAAAAAAAAAAAAAAAAAAAAAAAAAAAAAAAAAAAAAAAAAAAAAAAAAAAAAAAAAAAAAAAAAAAAAAAAAAAAAAAAAAAAAAAAAAAAAAAAAAAAAAAAAAAAAAAAAAAAAAAAAAAAAAAAAAAAAAAAAAAAAAAAAAAAAAAAAAAAAAAAAAAAAAAAAAAAAAAAAAAAAAAAAAAAAAAAAAAAAAAAAAAAAAAAAAAAAAAAAAAAAAAAAAAAAAAAAAAAAAAAAAAAAAAAAAAAAAAAAAAAAAAAAAAAAAAAAAAAAAAAAAAAAAAAAAAAAAAAAAAAAAAAAAAAAAAAAAAAAAAAAAAAAAAAAAAAAAAAAAAAAAAAAAAAAAAAAAAAAAAAAAAAAAAAAAAAAAAAAAAAAAAAAAAAAAAAAAAAAAAAAAAAAAAAAAAAAAAAAAAAAAAAAAAAAAAAAAAAAAAAAAAAAAAAAAAAAAAAAAAAAAAAAAAAAAAAAAAAAAAAAAAAAAAAAAAAAAAAAAAAAAAAAAAAAAAAAAAAAAAAAAAAAAAAAAAAAAAAAAAAAAAAAAAAAAAAAAAAAAAAAAAAAAAAAAAAAAAAAAAAAAAAAAAAAAAAAAAAAAAAAAAAAAAAAAAAAAAAAAAAAAAAAAAAAAAAAAAAAAAAAAAAAAAAAAAAAAAAAAAAAAAAAAAAAAAAAAAAAAAAAAAAAAAAAAAAAAAAAAAAAAAAAAAAAAAAAAAAAAAAAAAAAAAAAAAAAAAAAAAAAAAAAAAAAAAAAAAAAAAAAAAAAAAAAAAAAAAAAAAAAAAAAAAAAAAAAAAAAAAAAAAAAAAAAAAAAAAAAAAAAAAAAAAAAAAAAAAAAAAAAAAAAAAAAAAAAAAAAAAAAAAAAAAAAAAAAAAAAAAAAAAAAAAAAAAAAAAAAAAAAAAAAAAAAAAAAAAAAAAAAAAAAAAAAAAAAAAAAAAAAAAAAAAAAAAAAAAAAAAAAAAAAAAAAAAAAAAAAAAAAAAAAAAAAAAAAAAAAAAAAAAAAAAAAAAAAAAAAAAAAAAAAAAAAAAAAAAAAAAAAAAAAAAAAAAAAAAAAAAAAAAAAAAAAAAAAAAAAAAAAAAAAAAAAAAAAAAAAAAAAAAAAAAAAAAAAAAAAAAAAAAAAAAAAAAAAAAAAAAAAAAAAAAAAAAAAAAAAAAAAAAAAAAAAAAAAAAAAAAAAAAAAAAAAAAAAAAAAAAAAAAAAAAAAAAAAAAAAAAAAAAAAAAAAAAAAAAAAAAAAAAAAAAAAAAAAAAAAAAAAAAAAAAAAAAAAAAAAAAAAAAAAAAAAAAAAAAAAAAAAAAAAAAAAAAAAAAAAAAAAAAAAAAAAAAAAAAAAAAAAAAAAAAAAAAAAAAAAAAAAAAAAAAAPZYQOoF76psWuLkGbDP55OBaqLSfd/XuPsTPd0KWlgkOgC6YE3OVGZKeub0oihU12S4s19Noum1J7HcdQaElMsW6N0=</c2pa:manifest></metadata><defs><linearGradient id="g" gradientUnits="userSpaceOnUse" x1="0" y1="114" x2="114" y2="10"><stop offset="0" stop-color="#36B58A"/><stop offset="1" stop-color="#3A4FD0"/></linearGradient></defs><g transform="translate(0.00 0.00) scale(1.0000)" fill="none" stroke="url(#g)" stroke-width="1.5" stroke-linecap="round" stroke-linejoin="round"><path d="M-0.15 114 V98 A40.15 40.15 0 0 1 40 57.85 C41.54 57.64 46.17 57.28 49.25 56.58 C52.33 55.87 55.42 54.84 58.5 53.63 C61.58 52.42 64.67 50.96 67.75 49.32 C70.83 47.67 73.92 45.82 77 43.78 C80.08 41.75 83.17 39.51 86.25 37.11 C89.33 34.7 92.42 32.11 95.5 29.36 C98.58 26.6 101.67 23.67 104.75 20.57 C107.83 17.48 112.46 12.43 114 10.8"/><path d="M2.55 114 V98 A37.45 37.45 0 0 1 40 60.55 C41.54 60.36 46.17 60.03 49.25 59.38 C52.33 58.73 55.42 57.77 58.5 56.64 C61.58 55.51 64.67 54.15 67.75 52.62 C70.83 51.09 73.92 49.35 77 47.44 C80.08 45.53 83.17 43.43 86.25 41.17 C89.33 38.92 92.42 36.48 95.5 33.89 C98.58 31.29 101.67 28.53 104.75 25.62 C107.83 22.7 112.46 17.94 114 16.4"/><path d="M5.25 114 V98 A34.75 34.75 0 0 1 40 63.25 C41.54 63.07 46.17 62.78 49.25 62.18 C52.33 61.59 55.42 60.7 58.5 59.66 C61.58 58.61 64.67 57.35 67.75 55.92 C70.83 54.5 73.92 52.87 77 51.09 C80.08 49.31 83.17 47.35 86.25 45.24 C89.33 43.13 92.42 40.85 95.5 38.42 C98.58 35.99 101.67 33.4 104.75 30.66 C107.83 27.92 112.46 23.44 114 22"/><path d="M7.95 114 V98 A32.05 32.05 0 0 1 40 65.95 C41.54 65.79 46.17 65.53 49.25 64.99 C52.33 64.44 55.42 63.63 58.5 62.67 C61.58 61.71 64.67 60.55 67.75 59.23 C70.83 57.91 73.92 56.4 77 54.75 C80.08 53.1 83.17 51.28 86.25 49.31 C89.33 47.34 92.42 45.22 95.5 42.95 C98.58 40.68 101.67 38.26 104.75 35.7 C107.83 33.14 112.46 28.95 114 27.6"/><path d="M10.65 114 V98 A29.35 29.35 0 0 1 40 68.65 C41.54 68.51 46.17 68.29 49.25 67.79 C52.33 67.3 55.42 66.57 58.5 65.69 C61.58 64.81 64.67 63.74 67.75 62.53 C70.83 61.32 73.92 59.93 77 58.41 C80.08 56.88 83.17 55.2 86.25 53.38 C89.33 51.55 92.42 49.58 95.5 47.48 C98.58 45.37 101.67 43.12 104.75 40.74 C107.83 38.36 112.46 34.46 114 33.2"/><path d="M13.35 114 V98 A26.65 26.65 0 0 1 40 71.35 C41.54 71.22 46.17 71.04 49.25 70.6 C52.33 70.16 55.42 69.5 58.5 68.7 C61.58 67.91 64.67 66.94 67.75 65.83 C70.83 64.73 73.92 63.46 77 62.06 C80.08 60.67 83.17 59.12 86.25 57.44 C89.33 55.77 92.42 53.95 95.5 52.01 C98.58 50.06 101.67 47.99 104.75 45.79 C107.83 43.58 112.46 39.96 114 38.8"/><path d="M16.05 114 V98 A23.95 23.95 0 0 1 40 74.05 C41.54 73.94 46.17 73.79 49.25 73.4 C52.33 73.01 55.42 72.43 58.5 71.72 C61.58 71.01 64.67 70.14 67.75 69.14 C70.83 68.14 73.92 66.99 77 65.72 C80.08 64.45 83.17 63.04 86.25 61.51 C89.33 59.98 92.42 58.32 95.5 56.54 C98.58 54.76 101.67 52.85 104.75 50.83 C107.83 48.8 112.46 45.47 114 44.4"/><path d="M18.75 114 V98 A21.25 21.25 0 0 1 40 76.75 C41.54 76.66 46.17 76.54 49.25 76.21 C52.33 75.87 55.42 75.36 58.5 74.73 C61.58 74.11 64.67 73.33 67.75 72.44 C70.83 71.55 73.92 70.52 77 69.38 C80.08 68.23 83.17 66.96 86.25 65.58 C89.33 64.19 92.42 62.69 95.5 61.07 C98.58 59.45 101.67 57.71 104.75 55.87 C107.83 54.02 112.46 50.98 114 50"/><path d="M21.45 114 V98 A18.55 18.55 0 0 1 40 79.45 C41.54 79.38 46.17 79.29 49.25 79.01 C52.33 78.73 55.42 78.29 58.5 77.75 C61.58 77.21 64.67 76.53 67.75 75.75 C70.83 74.96 73.92 74.05 77 73.03 C80.08 72.02 83.17 70.88 86.25 69.64 C89.33 68.41 92.42 67.05 95.5 65.6 C98.58 64.14 101.67 62.58 104.75 60.91 C107.83 59.25 112.46 56.49 114 55.6"/><path d="M24.15 114 V98 A15.85 15.85 0 0 1 40 82.15 C41.54 82.09 46.17 82.04 49.25 81.81 C52.33 81.58 55.42 81.23 58.5 80.77 C61.58 80.31 64.67 79.73 67.75 79.05 C70.83 78.37 73.92 77.58 77 76.69 C80.08 75.8 83.17 74.81 86.25 73.71 C89.33 72.62 92.42 71.42 95.5 70.13 C98.58 68.84 101.67 67.44 104.75 65.95 C107.83 64.47 112.46 61.99 114 61.2"/></g></svg>